inDegrees=no
num_controls=7
num_derivatives=13
num_iterations=81
num_multipliers=7
num_parameters=0
num_slacks=7
num_states=26
objective=0.335363
objective_accelerations=0.034711
objective_balance=0.001193
objective_effort=0.026051
objective_height=0.271758
objective_ligament=0.001651
solver_duration=1028.041819
status=Solve_Succeeded
success=true
DataType=double
version=3
OpenSimVersion=4.5
endheader
time	/jointset/ground_pelvis/pelvis_tilt/value	/jointset/ground_pelvis/pelvis_tx/value	/jointset/ground_pelvis/pelvis_ty/value	/jointset/hip_r/hip_flexion_r/value	/jointset/hip_r/hip_adduction_r/value	/jointset/hip_r/hip_rotation_r/value	/jointset/back/lumbar_extension/value	/jointset/patellofemoral_r/patellar_flexion_r/value	/jointset/knee_r/knee_flexion_r/value	/jointset/knee_r/knee_adduction_r/value	/jointset/knee_r/knee_rotation_r/value	/jointset/ankle_r/ankle_angle_r/value	/jointset/subtalar_r/subtalar_angle_r/value	/jointset/ground_pelvis/pelvis_tilt/speed	/jointset/ground_pelvis/pelvis_tx/speed	/jointset/ground_pelvis/pelvis_ty/speed	/jointset/hip_r/hip_flexion_r/speed	/jointset/hip_r/hip_adduction_r/speed	/jointset/hip_r/hip_rotation_r/speed	/jointset/back/lumbar_extension/speed	/jointset/patellofemoral_r/patellar_flexion_r/speed	/jointset/knee_r/knee_flexion_r/speed	/jointset/knee_r/knee_adduction_r/speed	/jointset/knee_r/knee_rotation_r/speed	/jointset/ankle_r/ankle_angle_r/speed	/jointset/subtalar_r/subtalar_angle_r/speed	/forceset/tau_hip_flexion_r	/forceset/tau_hip_adduction_r	/forceset/tau_hip_rotation_r	/forceset/tau_knee_flexion_r	/forceset/tau_ankle_angle_r	/forceset/tau_subtalar_angle_r	/forceset/tau_lumbar_extension	lambda_cid13_p0	lambda_cid14_p0	lambda_cid14_p1	lambda_cid14_p2	lambda_cid14_p3	lambda_cid14_p4	lambda_cid14_p5	/jointset/ground_pelvis/pelvis_tilt/accel	/jointset/ground_pelvis/pelvis_tx/accel	/jointset/ground_pelvis/pelvis_ty/accel	/jointset/hip_r/hip_flexion_r/accel	/jointset/hip_r/hip_adduction_r/accel	/jointset/hip_r/hip_rotation_r/accel	/jointset/back/lumbar_extension/accel	/jointset/patellofemoral_r/patellar_flexion_r/accel	/jointset/knee_r/knee_flexion_r/accel	/jointset/knee_r/knee_adduction_r/accel	/jointset/knee_r/knee_rotation_r/accel	/jointset/ankle_r/ankle_angle_r/accel	/jointset/subtalar_r/subtalar_angle_r/accel	gamma_cid13_p0	gamma_cid14_p0	gamma_cid14_p1	gamma_cid14_p2	gamma_cid14_p3	gamma_cid14_p4	gamma_cid14_p5
1.5	-0.09306136903947121	0.04542099858339097	0.8247309500256311	0.7834664748429558	-0.2397370105424521	-0.09380887532735933	-0.6194133657064242	0.9115552036063373	0.9115552036063307	0.01891174732295509	0.1745211920480841	0.3020193207068079	0.1149147177352683	0.47724544693948	0.2112285084975711	0.471283996486029	-1.946700370476274	0.01166830247898154	-0.3170707551493638	0.8025236456527838	-1.893446171867588	-1.893446171867589	0.3166002852903667	-2.640041792453626e-05	-0.5217273158556296	-0.1707455067934757	-0.1616362342763807	0.01365444344599828	0.02677084266499932	-0.2850786157806512	-0.01010470831318786	-0.01408627043736626	0.2122692416951324	-10.38477049552043	-45.95275468838594	-13.20012467459772	1.425803423110748	-0.5137621103567414	-630.3958502706105	52.42626989203539	0.08923900908262698	0.4934256235334396	-0.4881048009641796	-0.9111742832891345	-0.1185466768364649	-0.2578906226601711	1.669158763630369	-1.272745241437018	-1.272745241437018	0.7073875703158423	-0.05161681441503353	-0.6063583946516613	-0.2446695670161329	2.485770460011104e-08	-1.438073741940272e-07	-2.395330925917044e-06	-1.314516422905779e-06	3.441421769181062e-07	-7.609203808375238e-09	-1.424466040443888e-06
1.51	-0.08828489045988117	0.04755771421562378	0.8294184328715919	0.763956086418198	-0.239626344456252	-0.09699621586813276	-0.6113060715415773	0.8925593528748839	0.8925593528748829	0.02211019790299531	0.1745209145377264	0.2967724831884605	0.1131953430366124	0.4779807447990251	0.2160868019250394	0.466114205867978	-1.955117260525323	0.01045948658414294	-0.3204005876475163	0.8188220980101981	-1.905459748353334	-1.905459748353332	0.3230585859196085	-2.560471181370529e-05	-0.5275595226312731	-0.1730991279294188	-0.1544036467746218	0.01181638231024557	0.02648554324279335	-0.2817180942644529	-0.007883416325155924	-0.014601366137704	0.2057016461711392	-11.38673724817219	-44.97138119568343	-13.10766750016897	1.246200786286257	-0.6666127593280925	-625.8818830359901	52.480034471185	0.05523147628613562	0.4779274691913494	-0.5461777316769804	-0.7679590020561782	-0.1232380679211041	-0.3710242381435956	1.593225075776529	-1.126033443658868	-1.126033443658352	0.6100233777695829	0.02611138617978378	-0.5594747032712646	-0.2267023927490676	2.000811428337695e-08	-1.488585169373205e-07	-2.363178202681719e-06	-1.396310197628945e-06	3.436203663264088e-07	-2.408245323125257e-08	-1.338308467541459e-06
1.52	-0.08350314764131826	0.04974219203549878	0.8340512655034821	0.7443693265656792	-0.2395280043334231	-0.1002169536688386	-0.6030391855323608	0.8734512924602693	0.8734512924602754	0.02537222590303312	0.1745206817090414	0.291469759025507	0.1114532333254239	0.4782982947344017	0.2207809460260109	0.4603539536718731	-1.96197465602811	0.00920310980476449	-0.3237502071357017	0.8344420145267986	-1.915888108499697	-1.915888108499691	0.3293157692905008	-1.746408347692389e-05	-0.5329046447769388	-0.1752925092999889	-0.1471710592728677	0.009978321174486635	0.02620024382059915	-0.2783575727482547	-0.005662124337125653	-0.01511646183805208	0.1991340506471425	-12.38847801493307	-43.992920843792	-13.0166544520652	1.067896796904973	-0.8123985153102652	-621.4019831728957	52.52368758653907	0.005689424248860463	0.460595758234124	-0.6061971165749606	-0.5992753740369757	-0.1280588537444466	-0.2618480206667568	1.533451595467591	-0.9557019735601441	-0.955701973560145	0.6671641186459801	-0.05014782996983411	-0.5089414686560039	-0.2126216139415048	1.775165110897442e-08	-1.546643283602858e-07	-2.377243208419487e-06	-1.486833054227947e-06	3.483912232540895e-07	-4.134606547008819e-08	-1.275820128468512e-06
1.53	-0.07872037747002908	0.05197275085172402	0.8386236114851063	0.724721858664898	-0.2394423572294584	-0.1034714613995808	-0.5946195931238821	0.8542469198453991	0.854246919845398	0.02869560340110544	0.1745206585571414	0.2861160879750992	0.1096901639073546	0.4781816005415905	0.2252987749510255	0.4540238648870973	-1.967252996517785	0.007921259987467252	-0.3271386876253709	0.8493509309941777	-1.924716085657191	-1.924716085657191	0.3353396491813831	9.374499209926091e-06	-0.537744900848817	-0.1772916557677931	-0.1398241999227729	0.008044147606913913	0.02580124619962986	-0.2753326135667928	-0.00312804360573172	-0.01562841127038639	0.1924938206790354	-13.38648287838682	-42.92977711555713	-12.91226465567799	0.890676594040265	-1.023720242095806	-617.1656989262979	52.63809992072427	-0.03148526150585239	0.4426429895968052	-0.6601352525331822	-0.4522464583654875	-0.1294327827535786	-0.3754805840543558	1.45078124609579	-0.8057999677663886	-0.8057999677672845	0.5666122648730455	0.02820616434439023	-0.4587847682446549	-0.1896872920499637	1.825038552329914e-08	-1.612719752554028e-07	-2.440414551191166e-06	-1.586630560320025e-06	3.587855394211094e-07	-5.944943820087948e-08	-1.238480350339389e-06
1.54	-0.07394100152476166	0.05424754126319169	0.843129912480262	0.7050295807448316	-0.2393697655710732	-0.1067594804394076	-0.5860546776359855	0.8349623765827693	0.8349623765827623	0.03207854216619713	0.1745207250834595	0.2807165709456146	0.1079078777988372	0.4776194495303942	0.2296272650744949	0.447144956378153	-1.97093665988477	0.006592020688923042	-0.3304524689525351	0.8635066304104695	-1.931922238051577	-1.931922238051583	0.3412280226948139	4.715601547788061e-07	-0.542073840592331	-0.1791358473896008	-0.132477340572682	0.006109974039335934	0.0254022485786701	-0.2723076543853311	-0.0005939628743391328	-0.01614036070272925	0.1858535907109253	-14.37715086776812	-41.87029136229964	-12.81051894635531	0.7161678779980442	-1.222764861916092	-612.9707502544256	52.73501887680892	-0.08340193942821536	0.4227279979251137	-0.7159610614086549	-0.2803399494991236	-0.1375367499938508	-0.2469081881657742	1.382808185250131	-0.631337020938366	-0.6313370209383691	0.640062843155694	-0.05729613431822392	-0.4066782029830461	-0.181630644742202	1.551556617516733e-08	-1.669146049471019e-07	-2.456610083771717e-06	-1.680566610343561e-06	3.62854038018881e-07	-7.418268807193492e-08	-1.172898466278615e-06
